# xmcd CD database file
#
# Track frame offsets:
#	183
#	19501
#	38403
#	59232
#	77408
#	125929
#	141633
#	164145
#	181366
#
# Disc length: 2625 seconds
#
# Revision: 2
# Processed by: cddbd v1.5.1PL0 Copyright (c) Steve Scherf et al.
# Submitted via: CDex 1.51
#
DISCID=820a3f09
DTITLE=Régis Huiban - Sans-sommeil
DYEAR=2005
DGENRE=Jazz
TTITLE0=Naître
TTITLE1=Menez (version quartet)
TTITLE2=Lili
TTITLE3=Danse du loup
TTITLE4=Sans-sommeil
TTITLE5=Swingavotte - La gavotte du genre
TTITLE6=Chanson pour les marins perdus en mer
TTITLE7=L'armoire mystérieuse
TTITLE8=Menez (version septet)
EXTD=YEAR: 2005
EXTT0=
EXTT1=
EXTT2=
EXTT3=
EXTT4=
EXTT5=
EXTT6=
EXTT7=
EXTT8=
PLAYORDER=
